<?xml version="1.0" encoding="UTF-8" standalone="no"?>
<!-- Generator: Gravit.io -->
<svg xmlns="http://www.w3.org/2000/svg" xmlns:xlink="http://www.w3.org/1999/xlink" style="isolation:isolate" viewBox="0 0 64 64" width="64" height="64"><defs><clipPath id="_clipPath_HUpS8IPdhw6HpMBhYlluynaRSpgENjO0"><rect width="64" height="64"/></clipPath></defs><g clip-path="url(#_clipPath_HUpS8IPdhw6HpMBhYlluynaRSpgENjO0)"><g><path d=" M 28.368 8.697 C 6.046 29.363 13.092 31.145 29.129 54 C 59.751 36.826 54.244 21.118 28.368 8.697 Z " fill="rgb(0,232,208)" vector-effect="non-scaling-stroke" stroke-width="1" stroke="rgb(0,0,0)" stroke-linejoin="miter" stroke-linecap="square" stroke-miterlimit="3"/><path d=" M 28.263 10.096 C 31.394 16.68 32.575 22.315 32.329 29.744 C 31.398 37.518 28.146 43.811 28.146 50.726 C 28.146 56.093 46.155 43.045 47.433 38.598 C 50.826 26.793 48.834 22.084 40.23 15.796 C 38.538 14.56 28.649 8.036 28.263 10.096 Z " fill="rgb(2,198,178)"/></g><g><path d=" M 35.14 22.289 C 44.75 24.722 40.223 34.892 34.52 38.183 C 25.702 40.387 20.639 30.333 26.076 24.896" fill="none" vector-effect="non-scaling-stroke" stroke-width="1" stroke="rgb(0,0,0)" stroke-linejoin="miter" stroke-linecap="square" stroke-miterlimit="3"/><polygon points="29,21.931,28.511,26.291,24.693,22.766" fill="rgb(0,0,0)" vector-effect="non-scaling-stroke" stroke-width="1" stroke="rgb(0,0,0)" stroke-linejoin="miter" stroke-linecap="square" stroke-miterlimit="3"/></g></g></svg>
